# xmcd CD database file
#
# Track frame offsets:
#	150
#	26422
#	43677
#	65662
#	84427
#	101742
#	133507
#	152515
#	178040
#	210452
#
# Disc length: 3136 seconds
#
# Revision: 3
# Processed by: cddbd v1.5.1PL0 Copyright (c) Steve Scherf et al.
# Submitted via: CDex 1.51
#
DISCID=7e0c3e0a
DTITLE=Lonnie Brooks - Live From Chicago - Bayou Lightning Strikes
DYEAR=1900
DGENRE=Blues
TTITLE0=Two Headed Man
TTITLE1=Trading Post
TTITLE2=In The Dark
TTITLE3=Got Me By The Tail
TTITLE4=One More Shot
TTITLE5=Born With The Blues
TTITLE6=Eyeballin'
TTITLE7=Cold Lonely Nights
TTITLE8=Hideaway
TTITLE9=You Know What My Body Needs
EXTD=
EXTT0=
EXTT1=
EXTT2=
EXTT3=
EXTT4=
EXTT5=
EXTT6=
EXTT7=
EXTT8=
EXTT9=
PLAYORDER=
